<svg id="visual" viewBox="0 0 960 300" width="960" height="300" xmlns="http://www.w3.org/2000/svg" xmlns:xlink="http://www.w3.org/1999/xlink" version="1.1"><rect x="0" y="0" width="960" height="300" fill="#ECE4F1"></rect><path d="M0 227L120 227L120 248L240 248L240 228L360 228L360 252L480 252L480 232L600 232L600 240L720 240L720 242L840 242L840 250L960 250L960 247L960 301L960 301L840 301L840 301L720 301L720 301L600 301L600 301L480 301L480 301L360 301L360 301L240 301L240 301L120 301L120 301L0 301Z" fill="#e1d6ea"></path><path d="M0 238L120 238L120 238L240 238L240 259L360 259L360 256L480 256L480 242L600 242L600 249L720 249L720 236L840 236L840 239L960 239L960 251L960 301L960 301L840 301L840 301L720 301L720 301L600 301L600 301L480 301L480 301L360 301L360 301L240 301L240 301L120 301L120 301L0 301Z" fill="#ddd0e7"></path><path d="M0 263L120 263L120 266L240 266L240 263L360 263L360 254L480 254L480 259L600 259L600 246L720 246L720 264L840 264L840 259L960 259L960 246L960 301L960 301L840 301L840 301L720 301L720 301L600 301L600 301L480 301L480 301L360 301L360 301L240 301L240 301L120 301L120 301L0 301Z" fill="#d9cbe4"></path><path d="M0 274L120 274L120 260L240 260L240 267L360 267L360 272L480 272L480 265L600 265L600 270L720 270L720 262L840 262L840 259L960 259L960 266L960 301L960 301L840 301L840 301L720 301L720 301L600 301L600 301L480 301L480 301L360 301L360 301L240 301L240 301L120 301L120 301L0 301Z" fill="#d5c5e2"></path><path d="M0 282L120 282L120 282L240 282L240 282L360 282L360 281L480 281L480 279L600 279L600 282L720 282L720 270L840 270L840 283L960 283L960 282L960 301L960 301L840 301L840 301L720 301L720 301L600 301L600 301L480 301L480 301L360 301L360 301L240 301L240 301L120 301L120 301L0 301Z" fill="#d1c0df"></path><path d="M0 291L120 291L120 285L240 285L240 289L360 289L360 280L480 280L480 290L600 290L600 292L720 292L720 287L840 287L840 281L960 281L960 291L960 301L960 301L840 301L840 301L720 301L720 301L600 301L600 301L480 301L480 301L360 301L360 301L240 301L240 301L120 301L120 301L0 301Z" fill="#cdbbdd"></path></svg>