<svg id="visual" viewBox="0 0 960 180" width="960" height="180" xmlns="http://www.w3.org/2000/svg" xmlns:xlink="http://www.w3.org/1999/xlink" version="1.1"><rect x="0" y="0" width="960" height="180" fill="#ECE4F1"></rect><path d="M0 63L87 63L87 53L175 53L175 67L262 67L262 61L349 61L349 54L436 54L436 54L524 54L524 59L611 59L611 55L698 55L698 58L785 58L785 70L873 70L873 59L960 59L960 72L960 0L960 0L873 0L873 0L785 0L785 0L698 0L698 0L611 0L611 0L524 0L524 0L436 0L436 0L349 0L349 0L262 0L262 0L175 0L175 0L87 0L87 0L0 0Z" fill="#e1d6ea"></path><path d="M0 41L87 41L87 46L175 46L175 43L262 43L262 43L349 43L349 43L436 43L436 56L524 56L524 58L611 58L611 48L698 48L698 55L785 55L785 58L873 58L873 58L960 58L960 50L960 0L960 0L873 0L873 0L785 0L785 0L698 0L698 0L611 0L611 0L524 0L524 0L436 0L436 0L349 0L349 0L262 0L262 0L175 0L175 0L87 0L87 0L0 0Z" fill="#dccfe7"></path><path d="M0 30L87 30L87 40L175 40L175 34L262 34L262 46L349 46L349 31L436 31L436 38L524 38L524 46L611 46L611 35L698 35L698 33L785 33L785 31L873 31L873 34L960 34L960 33L960 0L960 0L873 0L873 0L785 0L785 0L698 0L698 0L611 0L611 0L524 0L524 0L436 0L436 0L349 0L349 0L262 0L262 0L175 0L175 0L87 0L87 0L0 0Z" fill="#d7c8e3"></path><path d="M0 29L87 29L87 24L175 24L175 25L262 25L262 29L349 29L349 32L436 32L436 33L524 33L524 29L611 29L611 32L698 32L698 22L785 22L785 28L873 28L873 31L960 31L960 21L960 0L960 0L873 0L873 0L785 0L785 0L698 0L698 0L611 0L611 0L524 0L524 0L436 0L436 0L349 0L349 0L262 0L262 0L175 0L175 0L87 0L87 0L0 0Z" fill="#d2c1e0"></path><path d="M0 10L87 10L87 9L175 9L175 11L262 11L262 20L349 20L349 16L436 16L436 17L524 17L524 14L611 14L611 9L698 9L698 11L785 11L785 16L873 16L873 9L960 9L960 9L960 0L960 0L873 0L873 0L785 0L785 0L698 0L698 0L611 0L611 0L524 0L524 0L436 0L436 0L349 0L349 0L262 0L262 0L175 0L175 0L87 0L87 0L0 0Z" fill="#cdbbdd"></path></svg>