<svg id="visual" viewBox="0 0 960 300" width="960" height="300" xmlns="http://www.w3.org/2000/svg" xmlns:xlink="http://www.w3.org/1999/xlink" version="1.1"><rect x="0" y="0" width="960" height="300" fill="#ECE4F1"></rect><path d="M0 71L120 71L120 50L240 50L240 70L360 70L360 46L480 46L480 66L600 66L600 58L720 58L720 56L840 56L840 48L960 48L960 51L960 0L960 0L840 0L840 0L720 0L720 0L600 0L600 0L480 0L480 0L360 0L360 0L240 0L240 0L120 0L120 0L0 0Z" fill="#e1d6ea"></path><path d="M0 60L120 60L120 60L240 60L240 39L360 39L360 42L480 42L480 56L600 56L600 49L720 49L720 62L840 62L840 59L960 59L960 47L960 0L960 0L840 0L840 0L720 0L720 0L600 0L600 0L480 0L480 0L360 0L360 0L240 0L240 0L120 0L120 0L0 0Z" fill="#ddd0e7"></path><path d="M0 35L120 35L120 32L240 32L240 35L360 35L360 44L480 44L480 39L600 39L600 52L720 52L720 34L840 34L840 39L960 39L960 52L960 0L960 0L840 0L840 0L720 0L720 0L600 0L600 0L480 0L480 0L360 0L360 0L240 0L240 0L120 0L120 0L0 0Z" fill="#d9cbe4"></path><path d="M0 24L120 24L120 38L240 38L240 31L360 31L360 26L480 26L480 33L600 33L600 28L720 28L720 36L840 36L840 39L960 39L960 32L960 0L960 0L840 0L840 0L720 0L720 0L600 0L600 0L480 0L480 0L360 0L360 0L240 0L240 0L120 0L120 0L0 0Z" fill="#d5c5e2"></path><path d="M0 16L120 16L120 16L240 16L240 16L360 16L360 17L480 17L480 19L600 19L600 16L720 16L720 28L840 28L840 15L960 15L960 16L960 0L960 0L840 0L840 0L720 0L720 0L600 0L600 0L480 0L480 0L360 0L360 0L240 0L240 0L120 0L120 0L0 0Z" fill="#d1c0df"></path><path d="M0 7L120 7L120 13L240 13L240 9L360 9L360 18L480 18L480 8L600 8L600 6L720 6L720 11L840 11L840 17L960 17L960 7L960 0L960 0L840 0L840 0L720 0L720 0L600 0L600 0L480 0L480 0L360 0L360 0L240 0L240 0L120 0L120 0L0 0Z" fill="#cdbbdd"></path></svg>