<svg id="visual" viewBox="0 0 960 300" width="960" height="300" xmlns="http://www.w3.org/2000/svg" xmlns:xlink="http://www.w3.org/1999/xlink" version="1.1"><rect x="0" y="0" width="960" height="300" fill="#DCDCF9"></rect><path d="M0 97L42 97L42 94L83 94L83 88L125 88L125 98L167 98L167 90L209 90L209 95L250 95L250 89L292 89L292 97L334 97L334 103L376 103L376 104L417 104L417 99L459 99L459 101L501 101L501 92L543 92L543 91L584 91L584 104L626 104L626 92L668 92L668 93L710 93L710 93L751 93L751 101L793 101L793 97L835 97L835 99L877 99L877 95L918 95L918 97L960 97L960 89L960 0L960 0L918 0L918 0L877 0L877 0L835 0L835 0L793 0L793 0L751 0L751 0L710 0L710 0L668 0L668 0L626 0L626 0L584 0L584 0L543 0L543 0L501 0L501 0L459 0L459 0L417 0L417 0L376 0L376 0L334 0L334 0L292 0L292 0L250 0L250 0L209 0L209 0L167 0L167 0L125 0L125 0L83 0L83 0L42 0L42 0L0 0Z" fill="#ccccf5"></path><path d="M0 77L42 77L42 81L83 81L83 79L125 79L125 90L167 90L167 90L209 90L209 85L250 85L250 91L292 91L292 78L334 78L334 93L376 93L376 90L417 90L417 86L459 86L459 88L501 88L501 87L543 87L543 78L584 78L584 89L626 89L626 77L668 77L668 90L710 90L710 80L751 80L751 90L793 90L793 83L835 83L835 86L877 86L877 85L918 85L918 79L960 79L960 84L960 0L960 0L918 0L918 0L877 0L877 0L835 0L835 0L793 0L793 0L751 0L751 0L710 0L710 0L668 0L668 0L626 0L626 0L584 0L584 0L543 0L543 0L501 0L501 0L459 0L459 0L417 0L417 0L376 0L376 0L334 0L334 0L292 0L292 0L250 0L250 0L209 0L209 0L167 0L167 0L125 0L125 0L83 0L83 0L42 0L42 0L0 0Z" fill="#c1beed"></path><path d="M0 67L42 67L42 66L83 66L83 79L125 79L125 71L167 71L167 76L209 76L209 73L250 73L250 68L292 68L292 75L334 75L334 73L376 73L376 76L417 76L417 68L459 68L459 79L501 79L501 67L543 67L543 77L584 77L584 78L626 78L626 65L668 65L668 65L710 65L710 77L751 77L751 78L793 78L793 78L835 78L835 74L877 74L877 75L918 75L918 69L960 69L960 70L960 0L960 0L918 0L918 0L877 0L877 0L835 0L835 0L793 0L793 0L751 0L751 0L710 0L710 0L668 0L668 0L626 0L626 0L584 0L584 0L543 0L543 0L501 0L501 0L459 0L459 0L417 0L417 0L376 0L376 0L334 0L334 0L292 0L292 0L250 0L250 0L209 0L209 0L167 0L167 0L125 0L125 0L83 0L83 0L42 0L42 0L0 0Z" fill="#b7b0e4"></path><path d="M0 54L42 54L42 59L83 59L83 66L125 66L125 67L167 67L167 61L209 61L209 63L250 63L250 57L292 57L292 57L334 57L334 59L376 59L376 66L417 66L417 63L459 63L459 54L501 54L501 58L543 58L543 57L584 57L584 57L626 57L626 63L668 63L668 61L710 61L710 54L751 54L751 57L793 57L793 65L835 65L835 53L877 53L877 66L918 66L918 54L960 54L960 57L960 0L960 0L918 0L918 0L877 0L877 0L835 0L835 0L793 0L793 0L751 0L751 0L710 0L710 0L668 0L668 0L626 0L626 0L584 0L584 0L543 0L543 0L501 0L501 0L459 0L459 0L417 0L417 0L376 0L376 0L334 0L334 0L292 0L292 0L250 0L250 0L209 0L209 0L167 0L167 0L125 0L125 0L83 0L83 0L42 0L42 0L0 0Z" fill="#aea2dc"></path><path d="M0 45L42 45L42 49L83 49L83 45L125 45L125 54L167 54L167 47L209 47L209 46L250 46L250 46L292 46L292 42L334 42L334 53L376 53L376 45L417 45L417 45L459 45L459 54L501 54L501 49L543 49L543 51L584 51L584 52L626 52L626 54L668 54L668 54L710 54L710 45L751 45L751 45L793 45L793 53L835 53L835 51L877 51L877 46L918 46L918 55L960 55L960 52L960 0L960 0L918 0L918 0L877 0L877 0L835 0L835 0L793 0L793 0L751 0L751 0L710 0L710 0L668 0L668 0L626 0L626 0L584 0L584 0L543 0L543 0L501 0L501 0L459 0L459 0L417 0L417 0L376 0L376 0L334 0L334 0L292 0L292 0L250 0L250 0L209 0L209 0L167 0L167 0L125 0L125 0L83 0L83 0L42 0L42 0L0 0Z" fill="#a694d2"></path><path d="M0 40L42 40L42 31L83 31L83 32L125 32L125 32L167 32L167 37L209 37L209 30L250 30L250 35L292 35L292 32L334 32L334 37L376 37L376 42L417 42L417 39L459 39L459 31L501 31L501 33L543 33L543 34L584 34L584 41L626 41L626 31L668 31L668 41L710 41L710 30L751 30L751 33L793 33L793 34L835 34L835 41L877 41L877 42L918 42L918 36L960 36L960 39L960 0L960 0L918 0L918 0L877 0L877 0L835 0L835 0L793 0L793 0L751 0L751 0L710 0L710 0L668 0L668 0L626 0L626 0L584 0L584 0L543 0L543 0L501 0L501 0L459 0L459 0L417 0L417 0L376 0L376 0L334 0L334 0L292 0L292 0L250 0L250 0L209 0L209 0L167 0L167 0L125 0L125 0L83 0L83 0L42 0L42 0L0 0Z" fill="#9e86c9"></path><path d="M0 19L42 19L42 22L83 22L83 21L125 21L125 27L167 27L167 20L209 20L209 30L250 30L250 24L292 24L292 27L334 27L334 24L376 24L376 26L417 26L417 20L459 20L459 21L501 21L501 27L543 27L543 30L584 30L584 30L626 30L626 24L668 24L668 21L710 21L710 20L751 20L751 27L793 27L793 20L835 20L835 20L877 20L877 20L918 20L918 20L960 20L960 23L960 0L960 0L918 0L918 0L877 0L877 0L835 0L835 0L793 0L793 0L751 0L751 0L710 0L710 0L668 0L668 0L626 0L626 0L584 0L584 0L543 0L543 0L501 0L501 0L459 0L459 0L417 0L417 0L376 0L376 0L334 0L334 0L292 0L292 0L250 0L250 0L209 0L209 0L167 0L167 0L125 0L125 0L83 0L83 0L42 0L42 0L0 0Z" fill="#9778bf"></path><path d="M0 15L42 15L42 12L83 12L83 12L125 12L125 11L167 11L167 11L209 11L209 13L250 13L250 17L292 17L292 16L334 16L334 7L376 7L376 14L417 14L417 8L459 8L459 13L501 13L501 18L543 18L543 14L584 14L584 15L626 15L626 13L668 13L668 8L710 8L710 17L751 17L751 9L793 9L793 11L835 11L835 8L877 8L877 9L918 9L918 15L960 15L960 16L960 0L960 0L918 0L918 0L877 0L877 0L835 0L835 0L793 0L793 0L751 0L751 0L710 0L710 0L668 0L668 0L626 0L626 0L584 0L584 0L543 0L543 0L501 0L501 0L459 0L459 0L417 0L417 0L376 0L376 0L334 0L334 0L292 0L292 0L250 0L250 0L209 0L209 0L167 0L167 0L125 0L125 0L83 0L83 0L42 0L42 0L0 0Z" fill="#916ab4"></path></svg>