<svg id="visual" viewBox="0 0 960 180" width="960" height="180" xmlns="http://www.w3.org/2000/svg" xmlns:xlink="http://www.w3.org/1999/xlink" version="1.1"><rect x="0" y="0" width="960" height="180" fill="#ECE4F1"></rect><path d="M0 115L87 115L87 125L175 125L175 111L262 111L262 117L349 117L349 124L436 124L436 124L524 124L524 119L611 119L611 123L698 123L698 120L785 120L785 108L873 108L873 119L960 119L960 106L960 181L960 181L873 181L873 181L785 181L785 181L698 181L698 181L611 181L611 181L524 181L524 181L436 181L436 181L349 181L349 181L262 181L262 181L175 181L175 181L87 181L87 181L0 181Z" fill="#e1d6ea"></path><path d="M0 137L87 137L87 132L175 132L175 135L262 135L262 135L349 135L349 135L436 135L436 122L524 122L524 120L611 120L611 130L698 130L698 123L785 123L785 120L873 120L873 120L960 120L960 128L960 181L960 181L873 181L873 181L785 181L785 181L698 181L698 181L611 181L611 181L524 181L524 181L436 181L436 181L349 181L349 181L262 181L262 181L175 181L175 181L87 181L87 181L0 181Z" fill="#dccfe7"></path><path d="M0 148L87 148L87 138L175 138L175 144L262 144L262 132L349 132L349 147L436 147L436 140L524 140L524 132L611 132L611 143L698 143L698 145L785 145L785 147L873 147L873 144L960 144L960 145L960 181L960 181L873 181L873 181L785 181L785 181L698 181L698 181L611 181L611 181L524 181L524 181L436 181L436 181L349 181L349 181L262 181L262 181L175 181L175 181L87 181L87 181L0 181Z" fill="#d7c8e3"></path><path d="M0 149L87 149L87 154L175 154L175 153L262 153L262 149L349 149L349 146L436 146L436 145L524 145L524 149L611 149L611 146L698 146L698 156L785 156L785 150L873 150L873 147L960 147L960 157L960 181L960 181L873 181L873 181L785 181L785 181L698 181L698 181L611 181L611 181L524 181L524 181L436 181L436 181L349 181L349 181L262 181L262 181L175 181L175 181L87 181L87 181L0 181Z" fill="#d2c1e0"></path><path d="M0 168L87 168L87 169L175 169L175 167L262 167L262 158L349 158L349 162L436 162L436 161L524 161L524 164L611 164L611 169L698 169L698 167L785 167L785 162L873 162L873 169L960 169L960 169L960 181L960 181L873 181L873 181L785 181L785 181L698 181L698 181L611 181L611 181L524 181L524 181L436 181L436 181L349 181L349 181L262 181L262 181L175 181L175 181L87 181L87 181L0 181Z" fill="#cdbbdd"></path></svg>