<svg id="visual" viewBox="0 0 960 300" width="960" height="300" xmlns="http://www.w3.org/2000/svg" xmlns:xlink="http://www.w3.org/1999/xlink" version="1.1"><rect x="0" y="0" width="960" height="300" fill="#DCDCF9"></rect><path d="M0 201L42 201L42 204L83 204L83 210L125 210L125 200L167 200L167 208L209 208L209 203L250 203L250 209L292 209L292 201L334 201L334 195L376 195L376 194L417 194L417 199L459 199L459 197L501 197L501 206L543 206L543 207L584 207L584 194L626 194L626 206L668 206L668 205L710 205L710 205L751 205L751 197L793 197L793 201L835 201L835 199L877 199L877 203L918 203L918 201L960 201L960 209L960 301L960 301L918 301L918 301L877 301L877 301L835 301L835 301L793 301L793 301L751 301L751 301L710 301L710 301L668 301L668 301L626 301L626 301L584 301L584 301L543 301L543 301L501 301L501 301L459 301L459 301L417 301L417 301L376 301L376 301L334 301L334 301L292 301L292 301L250 301L250 301L209 301L209 301L167 301L167 301L125 301L125 301L83 301L83 301L42 301L42 301L0 301Z" fill="#ccccf5"></path><path d="M0 221L42 221L42 217L83 217L83 219L125 219L125 208L167 208L167 208L209 208L209 213L250 213L250 207L292 207L292 220L334 220L334 205L376 205L376 208L417 208L417 212L459 212L459 210L501 210L501 211L543 211L543 220L584 220L584 209L626 209L626 221L668 221L668 208L710 208L710 218L751 218L751 208L793 208L793 215L835 215L835 212L877 212L877 213L918 213L918 219L960 219L960 214L960 301L960 301L918 301L918 301L877 301L877 301L835 301L835 301L793 301L793 301L751 301L751 301L710 301L710 301L668 301L668 301L626 301L626 301L584 301L584 301L543 301L543 301L501 301L501 301L459 301L459 301L417 301L417 301L376 301L376 301L334 301L334 301L292 301L292 301L250 301L250 301L209 301L209 301L167 301L167 301L125 301L125 301L83 301L83 301L42 301L42 301L0 301Z" fill="#c1beed"></path><path d="M0 231L42 231L42 232L83 232L83 219L125 219L125 227L167 227L167 222L209 222L209 225L250 225L250 230L292 230L292 223L334 223L334 225L376 225L376 222L417 222L417 230L459 230L459 219L501 219L501 231L543 231L543 221L584 221L584 220L626 220L626 233L668 233L668 233L710 233L710 221L751 221L751 220L793 220L793 220L835 220L835 224L877 224L877 223L918 223L918 229L960 229L960 228L960 301L960 301L918 301L918 301L877 301L877 301L835 301L835 301L793 301L793 301L751 301L751 301L710 301L710 301L668 301L668 301L626 301L626 301L584 301L584 301L543 301L543 301L501 301L501 301L459 301L459 301L417 301L417 301L376 301L376 301L334 301L334 301L292 301L292 301L250 301L250 301L209 301L209 301L167 301L167 301L125 301L125 301L83 301L83 301L42 301L42 301L0 301Z" fill="#b7b0e4"></path><path d="M0 244L42 244L42 239L83 239L83 232L125 232L125 231L167 231L167 237L209 237L209 235L250 235L250 241L292 241L292 241L334 241L334 239L376 239L376 232L417 232L417 235L459 235L459 244L501 244L501 240L543 240L543 241L584 241L584 241L626 241L626 235L668 235L668 237L710 237L710 244L751 244L751 241L793 241L793 233L835 233L835 245L877 245L877 232L918 232L918 244L960 244L960 241L960 301L960 301L918 301L918 301L877 301L877 301L835 301L835 301L793 301L793 301L751 301L751 301L710 301L710 301L668 301L668 301L626 301L626 301L584 301L584 301L543 301L543 301L501 301L501 301L459 301L459 301L417 301L417 301L376 301L376 301L334 301L334 301L292 301L292 301L250 301L250 301L209 301L209 301L167 301L167 301L125 301L125 301L83 301L83 301L42 301L42 301L0 301Z" fill="#aea2dc"></path><path d="M0 253L42 253L42 249L83 249L83 253L125 253L125 244L167 244L167 251L209 251L209 252L250 252L250 252L292 252L292 256L334 256L334 245L376 245L376 253L417 253L417 253L459 253L459 244L501 244L501 249L543 249L543 247L584 247L584 246L626 246L626 244L668 244L668 244L710 244L710 253L751 253L751 253L793 253L793 245L835 245L835 247L877 247L877 252L918 252L918 243L960 243L960 246L960 301L960 301L918 301L918 301L877 301L877 301L835 301L835 301L793 301L793 301L751 301L751 301L710 301L710 301L668 301L668 301L626 301L626 301L584 301L584 301L543 301L543 301L501 301L501 301L459 301L459 301L417 301L417 301L376 301L376 301L334 301L334 301L292 301L292 301L250 301L250 301L209 301L209 301L167 301L167 301L125 301L125 301L83 301L83 301L42 301L42 301L0 301Z" fill="#a694d2"></path><path d="M0 258L42 258L42 267L83 267L83 266L125 266L125 266L167 266L167 261L209 261L209 268L250 268L250 263L292 263L292 266L334 266L334 261L376 261L376 256L417 256L417 259L459 259L459 267L501 267L501 265L543 265L543 264L584 264L584 257L626 257L626 267L668 267L668 257L710 257L710 268L751 268L751 265L793 265L793 264L835 264L835 257L877 257L877 256L918 256L918 262L960 262L960 259L960 301L960 301L918 301L918 301L877 301L877 301L835 301L835 301L793 301L793 301L751 301L751 301L710 301L710 301L668 301L668 301L626 301L626 301L584 301L584 301L543 301L543 301L501 301L501 301L459 301L459 301L417 301L417 301L376 301L376 301L334 301L334 301L292 301L292 301L250 301L250 301L209 301L209 301L167 301L167 301L125 301L125 301L83 301L83 301L42 301L42 301L0 301Z" fill="#9e86c9"></path><path d="M0 279L42 279L42 276L83 276L83 277L125 277L125 271L167 271L167 278L209 278L209 268L250 268L250 274L292 274L292 271L334 271L334 274L376 274L376 272L417 272L417 278L459 278L459 277L501 277L501 271L543 271L543 268L584 268L584 268L626 268L626 274L668 274L668 277L710 277L710 278L751 278L751 271L793 271L793 278L835 278L835 278L877 278L877 278L918 278L918 278L960 278L960 275L960 301L960 301L918 301L918 301L877 301L877 301L835 301L835 301L793 301L793 301L751 301L751 301L710 301L710 301L668 301L668 301L626 301L626 301L584 301L584 301L543 301L543 301L501 301L501 301L459 301L459 301L417 301L417 301L376 301L376 301L334 301L334 301L292 301L292 301L250 301L250 301L209 301L209 301L167 301L167 301L125 301L125 301L83 301L83 301L42 301L42 301L0 301Z" fill="#9778bf"></path><path d="M0 283L42 283L42 286L83 286L83 286L125 286L125 287L167 287L167 287L209 287L209 285L250 285L250 281L292 281L292 282L334 282L334 291L376 291L376 284L417 284L417 290L459 290L459 285L501 285L501 280L543 280L543 284L584 284L584 283L626 283L626 285L668 285L668 290L710 290L710 281L751 281L751 289L793 289L793 287L835 287L835 290L877 290L877 289L918 289L918 283L960 283L960 282L960 301L960 301L918 301L918 301L877 301L877 301L835 301L835 301L793 301L793 301L751 301L751 301L710 301L710 301L668 301L668 301L626 301L626 301L584 301L584 301L543 301L543 301L501 301L501 301L459 301L459 301L417 301L417 301L376 301L376 301L334 301L334 301L292 301L292 301L250 301L250 301L209 301L209 301L167 301L167 301L125 301L125 301L83 301L83 301L42 301L42 301L0 301Z" fill="#916ab4"></path></svg>