<svg id="visual" viewBox="0 0 960 300" width="960" height="300" xmlns="http://www.w3.org/2000/svg" xmlns:xlink="http://www.w3.org/1999/xlink" version="1.1"><rect x="0" y="0" width="960" height="300" fill="#DCDCF9"></rect><path d="M0 207L42 207L42 219L83 219L83 215L125 215L125 223L167 223L167 212L209 212L209 220L250 220L250 206L292 206L292 214L334 214L334 209L376 209L376 214L417 214L417 210L459 210L459 200L501 200L501 203L543 203L543 222L584 222L584 214L626 214L626 205L668 205L668 199L710 199L710 204L751 204L751 199L793 199L793 206L835 206L835 221L877 221L877 222L918 222L918 210L960 210L960 199L960 301L960 301L918 301L918 301L877 301L877 301L835 301L835 301L793 301L793 301L751 301L751 301L710 301L710 301L668 301L668 301L626 301L626 301L584 301L584 301L543 301L543 301L501 301L501 301L459 301L459 301L417 301L417 301L376 301L376 301L334 301L334 301L292 301L292 301L250 301L250 301L209 301L209 301L167 301L167 301L125 301L125 301L83 301L83 301L42 301L42 301L0 301Z" fill="#ccccf5"></path><path d="M0 218L42 218L42 232L83 232L83 220L125 220L125 216L167 216L167 216L209 216L209 213L250 213L250 211L292 211L292 222L334 222L334 213L376 213L376 222L417 222L417 221L459 221L459 231L501 231L501 229L543 229L543 229L584 229L584 229L626 229L626 225L668 225L668 230L710 230L710 225L751 225L751 229L793 229L793 229L835 229L835 220L877 220L877 226L918 226L918 221L960 221L960 213L960 301L960 301L918 301L918 301L877 301L877 301L835 301L835 301L793 301L793 301L751 301L751 301L710 301L710 301L668 301L668 301L626 301L626 301L584 301L584 301L543 301L543 301L501 301L501 301L459 301L459 301L417 301L417 301L376 301L376 301L334 301L334 301L292 301L292 301L250 301L250 301L209 301L209 301L167 301L167 301L125 301L125 301L83 301L83 301L42 301L42 301L0 301Z" fill="#c1beed"></path><path d="M0 228L42 228L42 234L83 234L83 230L125 230L125 242L167 242L167 231L209 231L209 226L250 226L250 233L292 233L292 223L334 223L334 222L376 222L376 239L417 239L417 235L459 235L459 223L501 223L501 226L543 226L543 227L584 227L584 232L626 232L626 224L668 224L668 235L710 235L710 241L751 241L751 238L793 238L793 231L835 231L835 243L877 243L877 229L918 229L918 240L960 240L960 222L960 301L960 301L918 301L918 301L877 301L877 301L835 301L835 301L793 301L793 301L751 301L751 301L710 301L710 301L668 301L668 301L626 301L626 301L584 301L584 301L543 301L543 301L501 301L501 301L459 301L459 301L417 301L417 301L376 301L376 301L334 301L334 301L292 301L292 301L250 301L250 301L209 301L209 301L167 301L167 301L125 301L125 301L83 301L83 301L42 301L42 301L0 301Z" fill="#b7b0e4"></path><path d="M0 248L42 248L42 238L83 238L83 250L125 250L125 249L167 249L167 247L209 247L209 239L250 239L250 240L292 240L292 252L334 252L334 237L376 237L376 248L417 248L417 252L459 252L459 244L501 244L501 238L543 238L543 242L584 242L584 244L626 244L626 241L668 241L668 235L710 235L710 250L751 250L751 245L793 245L793 248L835 248L835 240L877 240L877 251L918 251L918 252L960 252L960 239L960 301L960 301L918 301L918 301L877 301L877 301L835 301L835 301L793 301L793 301L751 301L751 301L710 301L710 301L668 301L668 301L626 301L626 301L584 301L584 301L543 301L543 301L501 301L501 301L459 301L459 301L417 301L417 301L376 301L376 301L334 301L334 301L292 301L292 301L250 301L250 301L209 301L209 301L167 301L167 301L125 301L125 301L83 301L83 301L42 301L42 301L0 301Z" fill="#aea2dc"></path><path d="M0 255L42 255L42 258L83 258L83 261L125 261L125 248L167 248L167 250L209 250L209 247L250 247L250 248L292 248L292 261L334 261L334 260L376 260L376 250L417 250L417 249L459 249L459 257L501 257L501 261L543 261L543 254L584 254L584 251L626 251L626 259L668 259L668 261L710 261L710 258L751 258L751 260L793 260L793 262L835 262L835 247L877 247L877 247L918 247L918 258L960 258L960 262L960 301L960 301L918 301L918 301L877 301L877 301L835 301L835 301L793 301L793 301L751 301L751 301L710 301L710 301L668 301L668 301L626 301L626 301L584 301L584 301L543 301L543 301L501 301L501 301L459 301L459 301L417 301L417 301L376 301L376 301L334 301L334 301L292 301L292 301L250 301L250 301L209 301L209 301L167 301L167 301L125 301L125 301L83 301L83 301L42 301L42 301L0 301Z" fill="#a694d2"></path><path d="M0 268L42 268L42 260L83 260L83 266L125 266L125 265L167 265L167 260L209 260L209 266L250 266L250 267L292 267L292 262L334 262L334 262L376 262L376 265L417 265L417 267L459 267L459 260L501 260L501 259L543 259L543 270L584 270L584 267L626 267L626 269L668 269L668 262L710 262L710 266L751 266L751 261L793 261L793 260L835 260L835 266L877 266L877 261L918 261L918 264L960 264L960 266L960 301L960 301L918 301L918 301L877 301L877 301L835 301L835 301L793 301L793 301L751 301L751 301L710 301L710 301L668 301L668 301L626 301L626 301L584 301L584 301L543 301L543 301L501 301L501 301L459 301L459 301L417 301L417 301L376 301L376 301L334 301L334 301L292 301L292 301L250 301L250 301L209 301L209 301L167 301L167 301L125 301L125 301L83 301L83 301L42 301L42 301L0 301Z" fill="#9e86c9"></path><path d="M0 273L42 273L42 275L83 275L83 281L125 281L125 275L167 275L167 281L209 281L209 276L250 276L250 281L292 281L292 273L334 273L334 279L376 279L376 275L417 275L417 274L459 274L459 278L501 278L501 271L543 271L543 276L584 276L584 280L626 280L626 271L668 271L668 269L710 269L710 276L751 276L751 275L793 275L793 274L835 274L835 278L877 278L877 269L918 269L918 272L960 272L960 269L960 301L960 301L918 301L918 301L877 301L877 301L835 301L835 301L793 301L793 301L751 301L751 301L710 301L710 301L668 301L668 301L626 301L626 301L584 301L584 301L543 301L543 301L501 301L501 301L459 301L459 301L417 301L417 301L376 301L376 301L334 301L334 301L292 301L292 301L250 301L250 301L209 301L209 301L167 301L167 301L125 301L125 301L83 301L83 301L42 301L42 301L0 301Z" fill="#9778bf"></path><path d="M0 288L42 288L42 281L83 281L83 289L125 289L125 285L167 285L167 289L209 289L209 285L250 285L250 283L292 283L292 289L334 289L334 286L376 286L376 284L417 284L417 289L459 289L459 291L501 291L501 285L543 285L543 291L584 291L584 282L626 282L626 286L668 286L668 287L710 287L710 286L751 286L751 289L793 289L793 287L835 287L835 289L877 289L877 281L918 281L918 285L960 285L960 287L960 301L960 301L918 301L918 301L877 301L877 301L835 301L835 301L793 301L793 301L751 301L751 301L710 301L710 301L668 301L668 301L626 301L626 301L584 301L584 301L543 301L543 301L501 301L501 301L459 301L459 301L417 301L417 301L376 301L376 301L334 301L334 301L292 301L292 301L250 301L250 301L209 301L209 301L167 301L167 301L125 301L125 301L83 301L83 301L42 301L42 301L0 301Z" fill="#916ab4"></path></svg>